<svg width="60" height="61" viewBox="0 0 60 61" fill="none" xmlns="http://www.w3.org/2000/svg">
<rect x="0.5" y="1" width="59" height="59" rx="4.5" fill="#132074"/>
<rect x="0.5" y="1" width="59" height="59" rx="4.5" stroke="white"/>
<path d="M12 6.5C8.69062 6.5 6 9.19062 6 12.5V48.5C6 51.8094 8.69062 54.5 12 54.5H28.875C26.7469 51.5469 25.5 47.9187 25.5 44C25.5 34.5687 32.7562 26.825 42 26.0656V22.4937C42 20.9 41.3719 19.3719 40.2469 18.2469L30.2531 8.25312C29.1281 7.12812 27.6094 6.5 26.0156 6.5H12ZM36.5156 23H27.75C26.5031 23 25.5 21.9969 25.5 20.75V11.9844L36.5156 23ZM57 44C57 36.5469 50.9531 30.5 43.5 30.5C36.0469 30.5 30 36.5469 30 44C30 51.4531 36.0469 57.5 43.5 57.5C50.9531 57.5 57 51.4531 57 44ZM48.8812 38.2906C49.5469 38.7781 49.6969 39.7156 49.2094 40.3812L43.2094 48.6312C42.9469 48.9875 42.5531 49.2125 42.1125 49.2406C41.6719 49.2687 41.2406 49.1187 40.9312 48.8094L37.1812 45.0594C36.6 44.4781 36.6 43.5219 37.1812 42.9406C37.7625 42.3594 38.7188 42.3594 39.3 42.9406L41.8125 45.4531L46.7812 38.6187C47.2687 37.9531 48.2062 37.8031 48.8812 38.2906Z" fill="white"/>
</svg>
