<svg width="60" height="60" viewBox="0 0 60 60" fill="none" xmlns="http://www.w3.org/2000/svg">
<rect x="0.5" y="0.5" width="59" height="59" rx="4.5" fill="white"/>
<rect x="0.5" y="0.5" width="59" height="59" rx="4.5" stroke="#132074"/>
<path d="M12 6C8.69062 6 6 8.69062 6 12V48C6 51.3094 8.69062 54 12 54H28.875C26.7469 51.0469 25.5 47.4187 25.5 43.5C25.5 34.0687 32.7562 26.325 42 25.5656V21.9937C42 20.4 41.3719 18.8719 40.2469 17.7469L30.2531 7.75312C29.1281 6.62812 27.6094 6 26.0156 6H12ZM36.5156 22.5H27.75C26.5031 22.5 25.5 21.4969 25.5 20.25V11.4844L36.5156 22.5ZM57 43.5C57 36.0469 50.9531 30 43.5 30C36.0469 30 30 36.0469 30 43.5C30 50.9531 36.0469 57 43.5 57C50.9531 57 57 50.9531 57 43.5ZM48.8812 37.7906C49.5469 38.2781 49.6969 39.2156 49.2094 39.8812L43.2094 48.1312C42.9469 48.4875 42.5531 48.7125 42.1125 48.7406C41.6719 48.7687 41.2406 48.6187 40.9312 48.3094L37.1812 44.5594C36.6 43.9781 36.6 43.0219 37.1812 42.4406C37.7625 41.8594 38.7188 41.8594 39.3 42.4406L41.8125 44.9531L46.7812 38.1187C47.2687 37.4531 48.2062 37.3031 48.8812 37.7906Z" fill="#132074"/>
</svg>
