<svg width="60" height="61" viewBox="0 0 60 61" fill="none" xmlns="http://www.w3.org/2000/svg">
<path d="M0 5.5C0 2.73858 2.23858 0.5 5 0.5H55C57.7614 0.5 60 2.73858 60 5.5V55.5C60 58.2614 57.7614 60.5 55 60.5H5C2.23858 60.5 0 58.2614 0 55.5V5.5Z" fill="#132074"/>
<path d="M32.0437 7.30625C30.8905 6.2375 29.1093 6.2375 27.9655 7.30625L6.96553 26.8062C6.06553 27.65 5.76553 28.9531 6.21553 30.0969C6.66553 31.2406 7.76241 32 8.99991 32H10.4999V48.5C10.4999 51.8094 13.1905 54.5 16.4999 54.5H43.4999C46.8093 54.5 49.4999 51.8094 49.4999 48.5V32H50.9999C52.2374 32 53.3437 31.2406 53.7937 30.0969C54.2437 28.9531 53.9437 27.6406 53.0437 26.8062L32.0437 7.30625ZM28.4999 36.5H31.4999C33.9843 36.5 35.9999 38.5156 35.9999 41V50H23.9999V41C23.9999 38.5156 26.0155 36.5 28.4999 36.5Z" fill="white"/>
</svg>
