<svg width="60" height="60" viewBox="0 0 60 60" fill="none" xmlns="http://www.w3.org/2000/svg">
<rect x="0.5" y="0.5" width="59" height="59" rx="4.5" fill="white"/>
<rect x="0.5" y="0.5" width="59" height="59" rx="4.5" stroke="#132074"/>
<path d="M20.9998 11.8406C20.9998 6.95625 25.0311 3 29.9998 3C34.9686 3 38.9998 6.95625 38.9998 11.8406C38.9998 17.4328 33.3654 24.1359 31.0123 26.6906C30.4592 27.2906 29.5357 27.2906 28.9826 26.6906C26.6295 24.1359 20.9951 17.4328 20.9951 11.8406H20.9998ZM29.9998 15C31.6545 15 32.9998 13.6547 32.9998 12C32.9998 10.3453 31.6545 9 29.9998 9C28.3451 9 26.9998 10.3453 26.9998 12C26.9998 13.6547 28.3451 15 29.9998 15Z" fill="#132074"/>
<path d="M22.5 36C22.5 34.3453 23.8453 33 25.5 33H34.5C36.1547 33 37.5 34.3453 37.5 36V39H40.5C42.1547 39 43.5 40.3453 43.5 42V54C43.5 55.6547 42.1547 57 40.5 57H19.5C17.8453 57 16.5 55.6547 16.5 54V42C16.5 40.3453 17.8453 39 19.5 39H22.5V36ZM29.25 49.5C28.4203 49.5 27.75 50.1703 27.75 51V54.75H32.25V51C32.25 50.1703 31.5797 49.5 30.75 49.5H29.25ZM22.5 50.25V48.75C22.5 48.3375 22.1625 48 21.75 48H20.25C19.8375 48 19.5 48.3375 19.5 48.75V50.25C19.5 50.6625 19.8375 51 20.25 51H21.75C22.1625 51 22.5 50.6625 22.5 50.25ZM21.75 45C22.1625 45 22.5 44.6625 22.5 44.25V42.75C22.5 42.3375 22.1625 42 21.75 42H20.25C19.8375 42 19.5 42.3375 19.5 42.75V44.25C19.5 44.6625 19.8375 45 20.25 45H21.75ZM40.5 50.25V48.75C40.5 48.3375 40.1625 48 39.75 48H38.25C37.8375 48 37.5 48.3375 37.5 48.75V50.25C37.5 50.6625 37.8375 51 38.25 51H39.75C40.1625 51 40.5 50.6625 40.5 50.25ZM39.75 45C40.1625 45 40.5 44.6625 40.5 44.25V42.75C40.5 42.3375 40.1625 42 39.75 42H38.25C37.8375 42 37.5 42.3375 37.5 42.75V44.25C37.5 44.6625 37.8375 45 38.25 45H39.75ZM28.875 37.875V39.375H27.375C26.9625 39.375 26.625 39.7125 26.625 40.125V40.875C26.625 41.2875 26.9625 41.625 27.375 41.625H28.875V43.125C28.875 43.5375 29.2125 43.875 29.625 43.875H30.375C30.7875 43.875 31.125 43.5375 31.125 43.125V41.625H32.625C33.0375 41.625 33.375 41.2875 33.375 40.875V40.125C33.375 39.7125 33.0375 39.375 32.625 39.375H31.125V37.875C31.125 37.4625 30.7875 37.125 30.375 37.125H29.625C29.2125 37.125 28.875 37.4625 28.875 37.875Z" fill="#132074"/>
</svg>
