<svg width="60" height="61" viewBox="0 0 60 61" fill="none" xmlns="http://www.w3.org/2000/svg">
<rect x="0.5" y="1" width="59" height="59" rx="4.5" fill="#132074"/>
<rect x="0.5" y="1" width="59" height="59" rx="4.5" stroke="white"/>
<path d="M20.9998 12.3406C20.9998 7.45625 25.0311 3.5 29.9998 3.5C34.9686 3.5 38.9998 7.45625 38.9998 12.3406C38.9998 17.9328 33.3654 24.6359 31.0123 27.1906C30.4592 27.7906 29.5357 27.7906 28.9826 27.1906C26.6295 24.6359 20.9951 17.9328 20.9951 12.3406H20.9998ZM29.9998 15.5C31.6545 15.5 32.9998 14.1547 32.9998 12.5C32.9998 10.8453 31.6545 9.5 29.9998 9.5C28.3451 9.5 26.9998 10.8453 26.9998 12.5C26.9998 14.1547 28.3451 15.5 29.9998 15.5Z" fill="white"/>
<path d="M22.5 36.5C22.5 34.8453 23.8453 33.5 25.5 33.5H34.5C36.1547 33.5 37.5 34.8453 37.5 36.5V39.5H40.5C42.1547 39.5 43.5 40.8453 43.5 42.5V54.5C43.5 56.1547 42.1547 57.5 40.5 57.5H19.5C17.8453 57.5 16.5 56.1547 16.5 54.5V42.5C16.5 40.8453 17.8453 39.5 19.5 39.5H22.5V36.5ZM29.25 50C28.4203 50 27.75 50.6703 27.75 51.5V55.25H32.25V51.5C32.25 50.6703 31.5797 50 30.75 50H29.25ZM22.5 50.75V49.25C22.5 48.8375 22.1625 48.5 21.75 48.5H20.25C19.8375 48.5 19.5 48.8375 19.5 49.25V50.75C19.5 51.1625 19.8375 51.5 20.25 51.5H21.75C22.1625 51.5 22.5 51.1625 22.5 50.75ZM21.75 45.5C22.1625 45.5 22.5 45.1625 22.5 44.75V43.25C22.5 42.8375 22.1625 42.5 21.75 42.5H20.25C19.8375 42.5 19.5 42.8375 19.5 43.25V44.75C19.5 45.1625 19.8375 45.5 20.25 45.5H21.75ZM40.5 50.75V49.25C40.5 48.8375 40.1625 48.5 39.75 48.5H38.25C37.8375 48.5 37.5 48.8375 37.5 49.25V50.75C37.5 51.1625 37.8375 51.5 38.25 51.5H39.75C40.1625 51.5 40.5 51.1625 40.5 50.75ZM39.75 45.5C40.1625 45.5 40.5 45.1625 40.5 44.75V43.25C40.5 42.8375 40.1625 42.5 39.75 42.5H38.25C37.8375 42.5 37.5 42.8375 37.5 43.25V44.75C37.5 45.1625 37.8375 45.5 38.25 45.5H39.75ZM28.875 38.375V39.875H27.375C26.9625 39.875 26.625 40.2125 26.625 40.625V41.375C26.625 41.7875 26.9625 42.125 27.375 42.125H28.875V43.625C28.875 44.0375 29.2125 44.375 29.625 44.375H30.375C30.7875 44.375 31.125 44.0375 31.125 43.625V42.125H32.625C33.0375 42.125 33.375 41.7875 33.375 41.375V40.625C33.375 40.2125 33.0375 39.875 32.625 39.875H31.125V38.375C31.125 37.9625 30.7875 37.625 30.375 37.625H29.625C29.2125 37.625 28.875 37.9625 28.875 38.375Z" fill="white"/>
</svg>
