<svg width="60" height="60" viewBox="0 0 60 60" fill="none" xmlns="http://www.w3.org/2000/svg">
<rect x="0.5" y="0.5" width="59" height="59" rx="4.5" fill="#132074"/>
<rect x="0.5" y="0.5" width="59" height="59" rx="4.5" stroke="white"/>
<path d="M12 9C12 7.34062 13.3406 6 15 6H45C46.6594 6 48 7.34062 48 9V12C48 13.6594 46.6594 15 45 15H15C13.3406 15 12 13.6594 12 12V9ZM15 19.5H45V48C45 51.3094 42.3094 54 39 54H21C17.6906 54 15 51.3094 15 48V19.5ZM27 29.25V33H23.25C22.425 33 21.75 33.675 21.75 34.5V37.5C21.75 38.325 22.425 39 23.25 39H27V42.75C27 43.575 27.675 44.25 28.5 44.25H31.5C32.325 44.25 33 43.575 33 42.75V39H36.75C37.575 39 38.25 38.325 38.25 37.5V34.5C38.25 33.675 37.575 33 36.75 33H33V29.25C33 28.425 32.325 27.75 31.5 27.75H28.5C27.675 27.75 27 28.425 27 29.25Z" fill="white"/>
</svg>
