<svg width="60" height="61" viewBox="0 0 60 61" fill="none" xmlns="http://www.w3.org/2000/svg">
<rect x="0.5" y="1" width="59" height="59" rx="4.5" fill="white"/>
<rect x="0.5" y="1" width="59" height="59" rx="4.5" stroke="#132074"/>
<path d="M12 9.5C12 7.84062 13.3406 6.5 15 6.5H45C46.6594 6.5 48 7.84062 48 9.5V12.5C48 14.1594 46.6594 15.5 45 15.5H15C13.3406 15.5 12 14.1594 12 12.5V9.5ZM15 20H45V48.5C45 51.8094 42.3094 54.5 39 54.5H21C17.6906 54.5 15 51.8094 15 48.5V20ZM27 29.75V33.5H23.25C22.425 33.5 21.75 34.175 21.75 35V38C21.75 38.825 22.425 39.5 23.25 39.5H27V43.25C27 44.075 27.675 44.75 28.5 44.75H31.5C32.325 44.75 33 44.075 33 43.25V39.5H36.75C37.575 39.5 38.25 38.825 38.25 38V35C38.25 34.175 37.575 33.5 36.75 33.5H33V29.75C33 28.925 32.325 28.25 31.5 28.25H28.5C27.675 28.25 27 28.925 27 29.75Z" fill="#132074"/>
</svg>
