<svg width="60" height="61" viewBox="0 0 60 61" fill="none" xmlns="http://www.w3.org/2000/svg">
<rect x="0.5" y="1" width="59" height="59" rx="4.5" fill="white"/>
<rect x="0.5" y="1" width="59" height="59" rx="4.5" stroke="#132074"/>
<path d="M30 12.5C24.675 12.5 19.8844 14.8156 16.5844 18.5H21C22.6594 18.5 24 19.8406 24 21.5C24 23.1594 22.6594 24.5 21 24.5H9C7.34062 24.5 6 23.1594 6 21.5V9.5C6 7.84062 7.34062 6.5 9 6.5C10.6594 6.5 12 7.84062 12 9.5V14.6281C16.3969 9.65 22.8281 6.5 30 6.5C43.2562 6.5 54 17.2438 54 30.5C54 43.7562 43.2562 54.5 30 54.5C21.8438 54.5 14.6344 50.4312 10.3031 44.2156C9.35625 42.8562 9.68438 40.9906 11.0438 40.0344C12.4031 39.0781 14.2687 39.4156 15.225 40.775C18.4875 45.4438 23.8875 48.4906 30 48.4906C39.9375 48.4906 48 40.4281 48 30.4906C48 20.5531 39.9375 12.5 30 12.5Z" fill="#132074"/>
<path d="M28.9635 19.6162C28.9635 18.9865 29.4701 18.48 30.0997 18.48C30.7294 18.48 31.236 18.9865 31.236 19.6162V21.5099H33.8871C34.7251 21.5099 35.4021 22.1869 35.4021 23.0248C35.4021 23.8628 34.7251 24.5398 33.8871 24.5398H28.4475C27.2687 24.5398 26.3124 25.4961 26.3124 26.6749C26.3124 27.7401 27.0935 28.6396 28.1445 28.7911L32.4811 29.4113C35.0281 29.7758 36.917 31.9536 36.917 34.5243C36.917 37.379 34.602 39.6893 31.752 39.6893H31.236V41.583C31.236 42.2126 30.7294 42.7192 30.0997 42.7192C29.4701 42.7192 28.9635 42.2126 28.9635 41.583V39.6893H25.5549C24.7169 39.6893 24.0399 39.0123 24.0399 38.1743C24.0399 37.3364 24.7169 36.6594 25.5549 36.6594H31.752C32.9308 36.6594 33.8871 35.7031 33.8871 34.5243C33.8871 33.4591 33.106 32.5595 32.055 32.4081L27.7184 31.7879C25.1714 31.4281 23.2825 29.2456 23.2825 26.6749C23.2825 23.8249 25.5975 21.5099 28.4475 21.5099H28.9635V19.6162Z" fill="#132074"/>
</svg>
