<svg width="60" height="61" viewBox="0 0 60 61" fill="none" xmlns="http://www.w3.org/2000/svg">
<rect x="0.5" y="1" width="59" height="59" rx="4.5" fill="#132074"/>
<rect x="0.5" y="1" width="59" height="59" rx="4.5" stroke="white"/>
<path d="M30 12.5C24.675 12.5 19.8844 14.8156 16.5844 18.5H21C22.6594 18.5 24 19.8406 24 21.5C24 23.1594 22.6594 24.5 21 24.5H9C7.34062 24.5 6 23.1594 6 21.5V9.5C6 7.84062 7.34062 6.5 9 6.5C10.6594 6.5 12 7.84062 12 9.5V14.6281C16.3969 9.65 22.8281 6.5 30 6.5C43.2562 6.5 54 17.2438 54 30.5C54 43.7562 43.2562 54.5 30 54.5C21.8438 54.5 14.6344 50.4312 10.3031 44.2156C9.35625 42.8562 9.68438 40.9906 11.0438 40.0344C12.4031 39.0781 14.2687 39.4156 15.225 40.775C18.4875 45.4438 23.8875 48.4906 30 48.4906C39.9375 48.4906 48 40.4281 48 30.4906C48 20.5531 39.9375 12.5 30 12.5Z" fill="white"/>
<path d="M28.9633 19.6163C28.9633 18.9866 29.4699 18.4801 30.0995 18.4801C30.7292 18.4801 31.2357 18.9866 31.2357 19.6163V21.51H33.8869C34.7248 21.51 35.4018 22.187 35.4018 23.0249C35.4018 23.8629 34.7248 24.5399 33.8869 24.5399H28.4473C27.2684 24.5399 26.3121 25.4962 26.3121 26.675C26.3121 27.7402 27.0933 28.6397 28.1443 28.7912L32.4808 29.4114C35.0278 29.7759 36.9168 31.9537 36.9168 34.5243C36.9168 37.3791 34.6017 39.6894 31.7517 39.6894H31.2357V41.5831C31.2357 42.2127 30.7292 42.7193 30.0995 42.7193C29.4699 42.7193 28.9633 42.2127 28.9633 41.5831V39.6894H25.5547C24.7167 39.6894 24.0397 39.0124 24.0397 38.1744C24.0397 37.3365 24.7167 36.6595 25.5547 36.6595H31.7517C32.9306 36.6595 33.8869 35.7032 33.8869 34.5243C33.8869 33.4591 33.1057 32.5596 32.0547 32.4081L27.7182 31.788C25.1712 31.4282 23.2822 29.2457 23.2822 26.675C23.2822 23.825 25.5973 21.51 28.4473 21.51H28.9633V19.6163Z" fill="white"/>
</svg>
