<svg width="60" height="61" viewBox="0 0 60 61" fill="none" xmlns="http://www.w3.org/2000/svg">
<rect x="0.5" y="1" width="59" height="59" rx="4.5" fill="white"/>
<rect x="0.5" y="1" width="59" height="59" rx="4.5" stroke="#132074"/>
<path d="M21 6.5C19.3406 6.5 18 7.84062 18 9.5V12.5H15C11.6906 12.5 9 15.1906 9 18.5V23H51V18.5C51 15.1906 48.3094 12.5 45 12.5H42V9.5C42 7.84062 40.6594 6.5 39 6.5C37.3406 6.5 36 7.84062 36 9.5V12.5H24V9.5C24 7.84062 22.6594 6.5 21 6.5ZM9 27.5V45.5C9 48.8094 11.6906 51.5 15 51.5H45C48.3094 51.5 51 48.8094 51 45.5V27.5H9Z" fill="#132074"/>
</svg>
